<svg width="177" height="126" viewBox="0 0 177 126" fill="none" xmlns="http://www.w3.org/2000/svg">
<path d="M19.6953 15.5C23.9844 15.5 27.3594 12.0547 27.3594 7.83594C27.3594 3.54688 23.9844 0.171875 19.6953 0.171875C15.4766 0.171875 12.0312 3.54688 12.0312 7.83594C12.0312 12.0547 15.4766 15.5 19.6953 15.5ZM3.17188 125.68C18.7812 125.68 25.8125 118.93 25.8125 104.094V27.875H13.5781V104.234C13.5781 112.391 10.6953 114.852 2.75 114.852H0.851562V125.609C1.625 125.68 2.39844 125.68 3.17188 125.68ZM72.7812 102.406C92.9609 102.406 106.602 87.7812 106.602 64.4375V64.2969C106.602 40.9531 92.8906 26.4688 72.7109 26.4688C52.5312 26.4688 38.8906 41.0234 38.8906 64.2969V64.4375C38.8906 87.7109 52.4609 102.406 72.7812 102.406ZM72.8516 91.5781C59.9141 91.5781 51.4062 81.6641 51.4062 64.4375V64.2969C51.4062 47.2109 59.9844 37.2969 72.7109 37.2969C85.6484 37.2969 94.0859 47.1406 94.0859 64.2969V64.4375C94.0859 81.5938 85.7188 91.5781 72.8516 91.5781ZM123.195 125.609C136.414 125.609 142.812 119.562 148.016 105.57L176.562 27.875H163.695L143.445 88.7656H143.164L122.984 27.875H109.906L137.047 101.07L135.57 105.219C132.617 113.516 128.328 115.484 120.594 115.484C119.117 115.484 117.711 115.273 116.656 115.062V125.047C118.203 125.328 120.805 125.609 123.195 125.609Z" fill="black"/>
</svg>
